HIERARCHY
ROOT joint_0
{
	OFFSET 0.000000 0.000000 0.000000
	CHANNELS 6 Xposition Yposition Zposition Zrotation Yrotation Xrotation 
	JOINT joint_1
	{
		OFFSET 0.000000 0.000000 0.000000
		CHANNELS 3 Zrotation Yrotation Xrotation
		JOINT joint_2
		{
			OFFSET 3.811170 -8.520760 0.839290
			CHANNELS 3 Zrotation Yrotation Xrotation
			JOINT joint_3
			{
				OFFSET 2.562200 -7.039590 0.000000
				CHANNELS 3 Zrotation Yrotation Xrotation
				JOINT joint_4
				{
					OFFSET 0.157640 -0.433110 2.322550
					CHANNELS 3 Zrotation Yrotation Xrotation
					End Site
					{
						OFFSET 0.000000 0.000000 0.000000
					}
				}
			}
		}
	}
	JOINT joint_5
	{
		OFFSET 0.000000 0.000000 0.000000
		CHANNELS 3 Zrotation Yrotation Xrotation
		JOINT joint_6
		{
			OFFSET -3.848050 -8.780180 0.839290
			CHANNELS 3 Zrotation Yrotation Xrotation
			JOINT joint_7
			{
				OFFSET -2.568260 -7.056230 0.000000
				CHANNELS 3 Zrotation Yrotation Xrotation
				JOINT joint_8
				{
					OFFSET -0.164730 -0.452590 2.363150
					CHANNELS 3 Zrotation Yrotation Xrotation
					End Site
					{
						OFFSET 0.000000 0.000000 0.000000
					}
				}
			}
		}
	}
	JOINT joint_9
	{
		OFFSET 0.028270 2.035590 -0.193380
		CHANNELS 3 Zrotation Yrotation Xrotation
		JOINT joint_10
		{
			OFFSET 0.056720 2.048850 -0.042750
			CHANNELS 3 Zrotation Yrotation Xrotation
			JOINT joint_11
			{
				OFFSET -0.054170 1.746240 0.172020
				CHANNELS 3 Zrotation Yrotation Xrotation
				JOINT joint_12
				{
					OFFSET 0.104070 1.761360 -0.123970
					CHANNELS 3 Zrotation Yrotation Xrotation
					End Site
					{
						OFFSET 0.000000 0.000000 0.000000
					}
				}
			}
			JOINT joint_13
			{
				OFFSET 3.362410 1.200890 -0.311210
				CHANNELS 3 Zrotation Yrotation Xrotation
				JOINT joint_14
				{
					OFFSET 4.983000 -0.000000 -0.000000
					CHANNELS 3 Zrotation Yrotation Xrotation
					JOINT joint_15
					{
						OFFSET 3.483560 -0.000000 -0.000000
						CHANNELS 3 Zrotation Yrotation Xrotation
						JOINT joint_16
						{
							OFFSET 0.715260 -0.000000 -0.000000
							CHANNELS 3 Zrotation Yrotation Xrotation
							End Site
							{
								OFFSET 0.000000 0.000000 0.000000
							}
						}
					}
				}
			}
			JOINT joint_17
			{
				OFFSET -3.136600 1.374050 -0.404650
				CHANNELS 3 Zrotation Yrotation Xrotation
				JOINT joint_18
				{
					OFFSET -5.241900 -0.000000 -0.000000
					CHANNELS 3 Zrotation Yrotation Xrotation
					JOINT joint_19
					{
						OFFSET -3.444170 -0.000000 -0.000000
						CHANNELS 3 Zrotation Yrotation Xrotation
						JOINT joint_20
						{
							OFFSET -0.622530 -0.000000 -0.000000
							CHANNELS 3 Zrotation Yrotation Xrotation
							End Site
							{
								OFFSET 0.000000 0.000000 0.000000
							}
						}
					}
				}
			}
		}
	}
}
MOTION
Frames: 12
Frame Time: 0.031667
-2.459858 14.507683 5.742495 170.276443 -42.221558 178.379807 -63.898038 -22.781263 -43.440290 -17.908259 -5.307210 14.185667 -18.135747 7.001776 -7.769519 0.478166 0.651388 -1.973469 -12.406977 -7.125895 11.677311 82.154328 -15.514447 -17.466271 30.251967 -6.129789 -87.214713 0.998452 1.652390 -3.504699 0.338646 14.430527 1.662238 2.336473 1.876534 2.127501 3.907174 -2.904617 -1.790444 -1.995757 -0.888995 0.615446 -64.514087 -1.313445 2.684619 -1.137546 -63.166307 0.946494 -2.476110 -3.443040 -3.850477 -6.847494 -0.064172 -0.072943 110.725494 15.642066 62.081946 -104.802288 85.249580 -178.696615 -1.211207 5.065804 -13.048567 6.819471 0.065603 -0.054740 
-2.618448 14.527208 5.658350 170.375656 -37.557163 178.634201 -42.696803 -18.440457 -48.157205 -19.128162 -2.496406 14.111906 -26.082249 -1.159851 -9.904109 0.325181 0.954472 -1.094231 -13.787520 -10.943069 20.821811 66.245376 -11.213386 -11.011697 32.218480 -0.729803 -81.704779 0.973748 1.315968 -2.810038 -10.066778 5.041914 1.564081 -4.601505 5.289266 -2.642758 0.719924 -0.188275 -1.258769 -1.902544 -1.389060 0.711672 -67.813567 0.614309 -10.401442 -11.261951 -70.417748 -4.263930 -1.247734 1.112798 1.709656 -6.770086 -0.062461 -0.087999 121.776617 18.383770 60.814672 -125.808569 79.075397 134.161409 1.853483 5.728206 -9.170512 6.746781 0.057098 -0.049468 
-2.764054 14.545231 5.564871 170.413406 -32.941769 178.892181 -38.754319 -19.283601 -43.663091 -23.322577 4.792500 19.790982 -12.121330 -0.033155 -5.773080 0.468792 0.876972 -1.359730 -16.104891 -12.344858 15.212882 74.273512 -11.749946 -1.513414 32.979924 -3.851736 -88.987584 0.907332 0.780346 -1.393073 -1.004650 9.821476 -5.388015 -2.950539 3.527784 -6.212556 0.839175 3.889855 9.200271 -0.396333 -1.631763 1.077034 -62.602290 -2.251335 10.083652 -7.547763 -68.976988 -3.085756 6.297741 -4.065779 -2.359833 -6.749695 -0.077005 -0.104109 115.770477 16.598454 57.954722 -176.727261 71.124012 126.768514 0.210359 -0.932824 -10.083877 6.714306 0.057404 -0.048896 
-2.906213 14.562422 5.467940 170.488632 -28.315804 179.197021 -37.889727 -16.332543 -54.080471 -11.531355 6.056298 16.288417 -26.903039 -0.241528 -1.565485 0.642422 0.283125 -3.413443 -19.626337 -17.995011 21.210741 72.242979 -12.586551 -11.790863 35.136126 -2.573238 -87.408376 1.007569 0.815933 -1.569990 -3.838123 9.896501 -2.644745 -0.095219 2.111363 4.410553 -4.410131 3.577786 2.086503 -1.367276 -1.493295 -0.583417 -59.067319 -4.717145 -1.766657 -7.124148 -66.631098 0.891438 3.550061 -7.367876 -0.195124 -6.785722 -0.086957 -0.104461 130.473880 23.413764 67.377303 139.805474 69.955530 38.643689 -3.068538 1.901182 -6.504569 6.744671 0.055257 -0.056599 
-3.037075 14.576888 5.359700 170.548111 -23.823706 179.467407 -37.601400 -15.019892 -51.870629 -16.026954 0.157479 21.853245 -9.608557 -4.358180 -2.992396 0.791937 0.136196 -4.072053 -10.751663 -14.214737 15.447299 70.355381 -18.897197 -11.749993 31.372333 -3.821376 -96.526562 1.024010 0.716847 -1.662661 -1.879973 10.289298 3.537413 -0.827075 -4.621132 0.091532 3.853858 -1.895647 1.025129 -2.177118 -1.601279 -1.608610 -65.236803 -2.080006 -3.367170 -3.920654 -71.478380 -1.279356 -1.735599 -6.971459 -4.200471 -6.817190 -0.067752 -0.104051 118.407285 19.887581 63.146492 131.781183 67.542704 19.660339 -0.468795 0.131681 -4.372579 6.805461 0.018839 -0.050064 
-3.164959 14.590025 5.247998 170.648514 -19.354546 179.764572 -41.493194 -8.589635 -53.010345 -18.013938 2.679852 15.080153 6.294833 -10.760492 2.901049 0.728589 0.728807 -2.047144 -10.490937 -17.169899 16.208652 68.188647 -11.565290 -18.404353 31.305612 -1.680866 -87.869728 0.844042 -0.129850 0.650214 0.324782 11.542454 2.591451 -6.870024 0.996036 -4.615534 7.332547 0.716121 -1.792602 -1.970622 -1.878871 -2.173098 -64.685593 0.516827 0.560961 -4.564866 -78.296426 -8.242259 -0.951618 -4.328809 1.745125 -6.821401 -0.039230 -0.109881 113.271830 21.155635 61.254653 130.009893 67.394844 34.118757 -2.589124 3.242808 -1.379715 6.823851 -0.008449 -0.032010 
-3.282469 14.598531 5.124234 170.778320 -15.053505 -179.976471 -35.293749 -6.928131 -50.119027 -15.406631 4.245992 21.434404 5.950968 -9.820362 -8.489225 0.793280 1.244503 -0.455468 -5.732464 -12.590360 20.728996 74.290233 -9.170016 -12.535533 33.832861 -4.485438 -82.522953 0.750168 -0.909225 2.961745 -0.104823 7.986412 -3.920996 -9.447263 3.070249 -10.739715 0.985939 3.090908 -0.927224 -1.777092 -2.522356 -1.954976 -63.616751 0.158534 -2.127989 -15.841203 -74.798378 -6.094271 0.955801 -3.437301 -2.481501 -6.813668 -0.036734 -0.095919 107.399807 17.249311 57.027415 152.708704 70.452023 92.448101 1.860774 4.553457 0.202341 6.814996 -0.010686 -0.027787 
-3.397201 14.605514 4.997565 170.957077 -10.781870 -179.693497 -38.473537 -6.050652 -47.895807 -13.309897 1.624807 25.926051 -2.396488 -9.251238 -0.586828 1.115909 0.943842 -1.571837 -19.187454 -16.297043 17.639573 69.947100 -13.899452 -8.361016 36.287504 -1.447948 -76.576543 0.639392 -1.040504 3.070303 -6.045189 13.013047 -7.019079 -11.975528 0.059361 -11.686604 0.036262 4.560012 0.632608 -1.922890 -2.954674 -1.940747 -57.648456 -4.324252 1.804521 -20.709424 -73.199199 -0.280929 2.529069 -6.575024 -3.833641 -6.842069 -0.037921 -0.092312 109.205866 19.260001 52.660858 -178.242634 75.458443 115.381479 1.897297 5.694698 -6.311979 6.841252 -0.009162 -0.015993 
-3.501622 14.606843 4.860115 171.189468 -6.673385 -179.448105 -34.391696 -0.605386 -43.325099 -14.766246 -0.973737 20.005803 -0.587132 -9.187694 2.222712 1.365315 0.909490 -1.747635 -19.531672 -13.043139 14.740959 71.859389 -16.910882 -8.569437 35.206323 -4.358928 -84.571928 0.669901 -1.014366 2.871390 -8.228821 13.429114 0.478210 -7.280980 -0.548638 -4.578978 -3.787035 1.645322 -5.865071 -2.114521 -3.430507 -2.012351 -57.487844 -5.370897 3.431638 -13.551055 -73.476402 -1.984446 2.972600 -3.190658 -0.699602 -6.836735 -0.016952 -0.086446 104.384278 21.529132 52.710752 -170.516434 80.311244 89.747362 -3.278045 1.919112 -7.561766 6.838248 -0.007415 -0.026227 
-3.603539 14.607029 4.720396 171.478287 -2.584581 -179.173004 -33.313571 -1.312065 -46.743930 -14.543103 3.881915 13.383596 -14.273069 -12.777950 -0.067626 1.322008 0.960331 -1.427917 -12.451308 -12.016173 12.457760 68.935542 -16.917463 -8.050648 28.638548 -3.878658 -82.288084 0.701775 -1.172649 3.343947 1.769218 11.176125 -1.869870 -0.865223 -1.004769 -4.048735 -2.426881 -2.978619 -8.908975 -1.900501 -3.633460 -2.084166 -59.678710 -2.376521 0.634793 -11.264619 -73.567257 -0.260595 3.711289 -2.728040 -1.254896 -6.862205 -0.029667 -0.081911 100.947218 26.105082 45.596468 -118.806409 88.775351 126.188870 -2.501424 5.647079 -3.891760 6.875517 0.008372 -0.028732 
-3.695530 14.602684 4.571686 171.832626 1.375654 -178.939560 -37.863663 -2.748114 -52.818386 -4.899402 4.998612 17.585442 -16.754983 -13.351821 -4.131534 0.931523 0.758305 -1.530639 -17.568319 -13.209454 13.773966 64.260885 -15.136037 -6.827812 29.889396 -5.800043 -80.431297 0.993545 -1.352972 3.900071 3.926942 9.194464 -2.141287 -2.061360 0.793445 -13.583423 -2.254909 0.027187 -3.057163 -2.181162 -3.460423 -2.820448 -56.670015 -4.192196 2.244186 -13.267892 -74.395240 -3.002068 0.190555 1.899377 -1.266668 -6.803225 -0.046933 -0.072344 105.850577 23.523718 41.986648 95.119496 87.269184 31.629185 4.018047 7.421366 0.963729 6.834626 0.017530 -0.027824 
-3.785338 14.597994 4.421126 172.246323 5.330235 -178.664795 -29.484386 -3.191560 -46.677533 -14.128007 7.685319 20.734875 -7.957879 -8.519202 -1.232356 0.730794 0.973133 -0.968684 -27.545251 -19.910032 3.486066 68.743600 -14.883735 -0.428704 29.113613 -7.042017 -74.954680 1.296269 -1.027383 2.800722 4.163473 6.646263 -2.222767 -6.358839 -1.251112 -9.907816 2.076846 0.626172 7.320268 -1.601765 -3.519960 -3.128575 -61.787332 -2.213010 2.031942 -12.657637 -78.365206 -12.632706 5.301557 -2.034747 -4.418794 -6.767102 -0.034438 -0.072591 113.582583 18.668966 52.826380 -110.964061 86.419230 -173.124987 1.347550 2.888939 -7.370860 6.797248 0.005569 -0.033308 
